<?xml version="1.0" encoding="utf-8"?>
<!-- Generator: Adobe Illustrator 15.0.0, SVG Export Plug-In . SVG Version: 6.00 Build 0)  -->
<!DOCTYPE svg PUBLIC "-//W3C//DTD SVG 1.1//EN" "http://www.w3.org/Graphics/SVG/1.1/DTD/svg11.dtd">
<svg version="1.1" id="Layer_1" xmlns="http://www.w3.org/2000/svg" xmlns:xlink="http://www.w3.org/1999/xlink" x="0px" y="0px"
	 width="792px" height="612px" viewBox="0 0 792 612" enable-background="new 0 0 792 612" xml:space="preserve">
<g>
	<polygon fill="none" stroke="#FFFFFF" stroke-width="2.836" stroke-miterlimit="10" points="479.229,366.945 394.657,403.847 
		310.073,366.945 310.073,257.104 394.657,220.207 479.229,257.104 	"/>
	<text transform="matrix(1 0 0 1 50.3145 358.9824)" fill="#FFFFFF" font-family="'BebasNeue'" font-size="133.2926">Point</text>
	<text transform="matrix(1 0 0 1 510.1211 358.9824)" fill="#FFFFFF" font-family="'BebasNeue'" font-size="133.2926">Paper</text>
</g>
<g>
	<path fill="#FFFFFF" d="M426.331,273.41c0.481-0.655,0.911-1.258,1.356-1.841c4.352-5.656,10.084-9.007,17.091-10.187
		c1.68-0.285,3.368-0.216,5.015,0.274c2.717,0.805,3.509,2.808,2.075,5.246c-0.572,0.973-1.354,1.75-2.219,2.448
		c-2.542,2.055-5.421,3.426-8.574,4.263c-2.92,0.779-5.896,1.139-8.908,1.212c-1.209,0.033-2.421,0.006-3.631,0.006
		c-0.272,0.349-0.529,0.614-0.712,0.923c-2.145,3.661-3.856,7.5-4.627,11.704c-0.207,1.139-0.317,2.294-0.433,3.45
		c-0.098,1.005,0.026,2,0.332,2.965c0.29,0.919,0.14,1.77-0.448,2.541c-0.341,0.435-0.918,0.412-1.161-0.086
		c-0.277-0.566-0.521-1.152-0.739-1.747c-0.604-1.665-1.569-3.047-2.887-4.268c-3.584-3.308-7.857-5.301-12.484-6.534
		c-5.704-1.519-11.535-1.873-17.418-1.41c-6.113,0.48-11.914,2.134-17.483,4.644c-9.871,4.45-17.538,11.365-23.091,20.648
		c-2.559,4.278-4.672,8.739-5.856,13.601c-1.99,8.161-1.41,16.105,2.036,23.805c1.239,2.764,2.884,5.274,4.82,7.586
		c7.958,9.496,17.854,15.777,30.108,18.199c5.046,0.998,10.105,1.532,15.249,1.187c6.201-0.424,12.046-2.003,17.325-5.388
		c3.55-2.271,6.473-5.231,9.106-8.481c2.131-2.627,3.908-5.5,5.47-8.503c1.401-2.693,2.274-5.544,2.57-8.576
		c0.164-1.646,0.049-3.27-0.293-4.871c-0.809-3.811-2.386-7.293-4.439-10.591c-1.325-2.131-3.1-3.696-5.412-4.81
		c-0.938,0.73-1.887,1.479-2.847,2.217c-5.74,4.386-11.47,8.781-17.227,13.146c-2.146,1.625-4.396,3.101-6.778,4.357
		c-3.239,1.713-6.641,2.955-10.278,3.49c-1.795,0.262-3.579,0.221-5.346-0.186c-1.966-0.449-3.644-1.393-4.853-3.037
		c-1.133-1.545-1.48-3.246-0.833-5.088c0.21-0.602,0.519-1.16,1.053-1.546c0.452-0.323,0.938-0.479,1.475-0.17
		c0.465,0.271,0.647,0.679,0.618,1.19c-0.032,0.474-0.1,0.943-0.14,1.412c-0.208,2.433,0.877,4.061,3.214,4.781
		c2.125,0.658,4.274,0.543,6.416,0.108c3.494-0.715,6.76-2.022,9.833-3.819c3.054-1.783,5.945-3.816,8.729-5.994
		c3.319-2.604,6.59-5.261,9.732-8.086c3.726-3.353,7.697-6.402,11.816-9.27c6.504-4.52,20.863-9.544,25.827-10.873
		c13.945-3.734,24.342-4.83,31.659-4.532c10.091,0.413,14.493,2.587,15.533,3.366c0.895,0.667,1.475,1.522,1.341,2.694
		c-0.123,1.103-0.679,2-1.546,2.66c-0.898,0.68-2.19,0.455-2.812-0.426c-0.625-0.881-0.436-1.922,0.489-2.641
		c0.238-0.183,0.512-0.328,0.876-0.56c-0.277-0.224-0.449-0.41-0.659-0.522c-0.803-0.421-1.405-1.716-8.832-2.31
		c-5.777-0.462-19.177,0.154-31.536,3.54c-11.901,3.26-22.99,7.858-26.145,9.995c-2.05,1.391-4.132,2.732-6.187,4.116
		c-0.295,0.198-0.55,0.46-0.903,0.767c0.508,0.361,0.919,0.659,1.34,0.953c1.169,0.831,2.234,1.775,3.031,2.975
		c2.438,3.681,4.293,7.611,5.183,11.968c0.668,3.272,0.521,6.515-0.438,9.692c-0.454,1.512-0.985,3.019-1.684,4.424
		c-3.396,6.816-8.136,12.541-14.211,17.132c-4.421,3.339-9.414,5.342-14.861,6.271c-4.13,0.705-8.283,0.926-12.451,0.588
		c-8.891-0.719-17.348-2.938-25.014-7.654c-6.746-4.152-12.339-9.52-16.72-16.126c-3.247-4.896-4.93-10.328-5.455-16.157
		c-0.614-6.831,0.679-13.352,3.303-19.607c3.888-9.284,9.742-17.095,17.844-23.147c6.438-4.807,13.648-7.914,21.459-9.678
		c3.671-0.83,7.393-1.143,11.149-1.11c4.761,0.037,9.479,0.433,14.086,1.714c4.349,1.21,8.462,2.941,12.091,5.685
		c0.706,0.533,1.373,1.109,2.146,1.73c0.268-0.505,0.159-0.985,0.225-1.425c0.056-0.417,0.095-0.84,0.164-1.254
		c0.082-0.466,0.18-0.931,0.292-1.392c0.11-0.462,0.238-0.918,0.368-1.375c0.114-0.407,0.24-0.809,0.368-1.211
		c0.143-0.453,0.291-0.902,0.45-1.351c0.146-0.395,0.309-0.785,0.467-1.174c0.176-0.439,0.356-0.879,0.551-1.312
		c0.188-0.435,0.393-0.864,0.601-1.291c0.184-0.378,0.383-0.75,0.573-1.129c0.213-0.415,0.429-0.832,0.631-1.226
		c-0.321-0.485-0.78-0.386-1.168-0.425c-2.519-0.247-5.046-0.415-7.562-0.722c-3.555-0.434-7.105-0.911-10.646-1.466
		c-9.638-1.516-19.113-3.809-28.543-6.289c-3.875-1.018-7.768-1.957-11.737-2.552c-10.53-1.575-41.621-5.33-62.865,7.113
		c-2.148,1.259-3.796,3.19-5.31,5.173c-2.867,3.761-4.513,7.963-4.44,12.744c0.032,2.295,0.517,4.499,1.659,6.522
		c0.617,1.086,1.442,1.95,2.663,2.348c0.146,0.049,0.31,0.043,0.501,0.07c0.279-0.301,0.543-0.633,0.857-0.901
		c0.588-0.498,1.45-0.563,2.076-0.21c0.662,0.37,1.079,1.263,0.923,2.033c-0.205,1.032-0.827,1.729-1.852,1.925
		c-0.554,0.107-1.184,0.126-1.715-0.033c-1.585-0.474-3-1.24-4.071-2.586c-1.642-2.052-2.434-4.396-2.642-6.982
		c-0.543-6.826,1.501-12.812,6.349-17.578c17.625-17.319,61.875-11.696,66.527-11.166c4.832,0.548,9.552,1.666,14.269,2.784
		c5.64,1.338,11.257,2.765,16.899,4.088c5.442,1.275,10.958,2.167,16.477,3.043c4.378,0.696,8.775,1.172,13.207,1.361
		C425.473,273.424,425.84,273.41,426.331,273.41z M429.525,273.538c2.293,0.131,4.336-0.038,6.386-0.198
		c3.245-0.249,6.316-1.114,9.225-2.574c1.37-0.688,2.652-1.518,3.786-2.557c0.666-0.607,1.266-1.27,1.68-2.081
		c0.803-1.571,0.416-2.451-1.299-2.945c-1.447-0.411-2.917-0.438-4.386-0.176c-2.14,0.38-4.176,1.091-6.094,2.117
		c-3.544,1.897-6.451,4.537-8.905,7.695C429.792,272.973,429.723,273.165,429.525,273.538z"/>
</g>
</svg>
