<?xml version="1.0" encoding="utf-8"?>
<!-- Generator: Adobe Illustrator 15.0.0, SVG Export Plug-In . SVG Version: 6.00 Build 0)  -->
<!DOCTYPE svg PUBLIC "-//W3C//DTD SVG 1.1//EN" "http://www.w3.org/Graphics/SVG/1.1/DTD/svg11.dtd">
<svg version="1.1" id="Layer_1" xmlns="http://www.w3.org/2000/svg" xmlns:xlink="http://www.w3.org/1999/xlink" x="0px" y="0px"
	 width="792px" height="612px" viewBox="0 0 792 612" enable-background="new 0 0 792 612" xml:space="preserve">
<g>
	<polygon fill="none" stroke="#231F20" stroke-width="2.836" stroke-miterlimit="10" points="479.229,366.946 394.657,403.847 
		310.073,366.946 310.073,257.104 394.657,220.207 479.229,257.104 	"/>
	<text transform="matrix(1 0 0 1 50.3145 358.9824)" font-family="'BebasNeue'" font-size="133.2926">Point</text>
	<text transform="matrix(1 0 0 1 510.1211 358.9824)" font-family="'BebasNeue'" font-size="133.2926">Paper</text>
</g>
<g>
	<path fill="#231F20" d="M426.331,273.41c0.482-0.655,0.911-1.258,1.357-1.841c4.351-5.656,10.084-9.007,17.09-10.187
		c1.68-0.285,3.369-0.216,5.015,0.274c2.717,0.805,3.509,2.808,2.075,5.246c-0.572,0.973-1.354,1.75-2.219,2.448
		c-2.542,2.055-5.421,3.426-8.574,4.263c-2.92,0.779-5.896,1.139-8.908,1.212c-1.209,0.033-2.421,0.006-3.631,0.006
		c-0.272,0.349-0.529,0.614-0.712,0.923c-2.144,3.661-3.856,7.5-4.627,11.704c-0.207,1.139-0.317,2.294-0.432,3.45
		c-0.098,1.005,0.026,2,0.332,2.965c0.29,0.919,0.139,1.77-0.449,2.541c-0.34,0.435-0.918,0.412-1.161-0.086
		c-0.277-0.566-0.521-1.152-0.739-1.747c-0.604-1.665-1.569-3.047-2.887-4.268c-3.584-3.308-7.857-5.301-12.484-6.534
		c-5.704-1.519-11.535-1.873-17.418-1.41c-6.113,0.48-11.914,2.134-17.483,4.644c-9.871,4.45-17.538,11.365-23.091,20.648
		c-2.559,4.278-4.672,8.74-5.857,13.601c-1.99,8.161-1.41,16.105,2.036,23.805c1.24,2.763,2.884,5.274,4.821,7.585
		c7.958,9.496,17.854,15.777,30.108,18.199c5.046,0.999,10.106,1.533,15.249,1.187c6.201-0.424,12.046-2.003,17.325-5.388
		c3.55-2.271,6.473-5.231,9.107-8.481c2.131-2.627,3.908-5.5,5.47-8.503c1.401-2.693,2.274-5.544,2.57-8.576
		c0.164-1.646,0.049-3.27-0.293-4.872c-0.809-3.81-2.386-7.292-4.44-10.59c-1.325-2.131-3.099-3.697-5.412-4.81
		c-0.938,0.731-1.886,1.479-2.846,2.217c-5.741,4.386-11.47,8.781-17.227,13.147c-2.146,1.625-4.396,3.1-6.778,4.357
		c-3.24,1.713-6.641,2.955-10.279,3.49c-1.794,0.262-3.579,0.221-5.345-0.185c-1.966-0.45-3.644-1.393-4.853-3.038
		c-1.133-1.544-1.48-3.246-0.833-5.088c0.21-0.601,0.519-1.16,1.053-1.545c0.452-0.324,0.937-0.479,1.475-0.17
		c0.464,0.27,0.647,0.678,0.618,1.191c-0.033,0.473-0.1,0.942-0.14,1.412c-0.208,2.432,0.877,4.06,3.214,4.781
		c2.125,0.658,4.274,0.543,6.416,0.108c3.494-0.715,6.76-2.023,9.833-3.819c3.054-1.784,5.945-3.817,8.728-5.995
		c3.32-2.604,6.59-5.26,9.733-8.086c3.725-3.352,7.697-6.402,11.816-9.269c6.504-4.519,20.864-9.544,25.827-10.873
		c13.946-3.734,24.342-4.83,31.66-4.532c10.09,0.413,14.493,2.587,15.533,3.366c0.894,0.667,1.474,1.522,1.341,2.694
		c-0.123,1.103-0.679,1.999-1.546,2.659c-0.899,0.68-2.191,0.455-2.812-0.425c-0.625-0.881-0.435-1.922,0.489-2.641
		c0.239-0.183,0.512-0.328,0.876-0.56c-0.277-0.224-0.449-0.41-0.659-0.522c-0.802-0.421-1.405-1.716-8.832-2.31
		c-5.777-0.462-19.177,0.154-31.536,3.54c-11.901,3.26-22.99,7.858-26.144,9.995c-2.05,1.39-4.132,2.732-6.187,4.116
		c-0.295,0.198-0.55,0.46-0.903,0.766c0.508,0.362,0.919,0.66,1.34,0.953c1.169,0.832,2.234,1.776,3.031,2.976
		c2.438,3.68,4.293,7.611,5.182,11.967c0.668,3.273,0.521,6.515-0.438,9.693c-0.454,1.511-0.985,3.018-1.684,4.423
		c-3.396,6.816-8.135,12.541-14.211,17.132c-4.42,3.339-9.414,5.342-14.861,6.271c-4.13,0.704-8.283,0.925-12.451,0.588
		c-8.891-0.719-17.348-2.938-25.014-7.655c-6.746-4.152-12.339-9.52-16.719-16.126c-3.248-4.896-4.93-10.328-5.456-16.157
		c-0.614-6.831,0.679-13.351,3.303-19.608c3.888-9.283,9.742-17.094,17.844-23.147c6.437-4.807,13.648-7.914,21.459-9.678
		c3.671-0.83,7.392-1.143,11.149-1.11c4.761,0.037,9.48,0.433,14.086,1.714c4.349,1.21,8.462,2.941,12.091,5.685
		c0.706,0.533,1.373,1.109,2.146,1.73c0.267-0.505,0.159-0.985,0.224-1.425c0.056-0.417,0.095-0.84,0.164-1.254
		c0.082-0.466,0.18-0.931,0.292-1.392c0.111-0.462,0.239-0.918,0.368-1.375c0.115-0.407,0.241-0.809,0.369-1.211
		c0.142-0.453,0.291-0.902,0.45-1.351c0.146-0.395,0.308-0.785,0.467-1.174c0.175-0.439,0.356-0.879,0.55-1.312
		c0.189-0.435,0.393-0.864,0.601-1.291c0.183-0.378,0.383-0.75,0.573-1.129c0.213-0.415,0.429-0.832,0.631-1.226
		c-0.321-0.485-0.78-0.386-1.168-0.425c-2.519-0.247-5.046-0.415-7.561-0.722c-3.555-0.434-7.106-0.911-10.647-1.466
		c-9.638-1.516-19.113-3.809-28.543-6.289c-3.875-1.018-7.768-1.957-11.737-2.552c-10.531-1.575-41.621-5.33-62.865,7.113
		c-2.148,1.259-3.796,3.19-5.31,5.173c-2.867,3.761-4.513,7.963-4.44,12.744c0.032,2.295,0.517,4.499,1.659,6.522
		c0.617,1.086,1.442,1.95,2.663,2.348c0.146,0.049,0.31,0.043,0.501,0.07c0.279-0.301,0.543-0.633,0.857-0.901
		c0.588-0.498,1.45-0.563,2.076-0.21c0.662,0.37,1.079,1.263,0.923,2.033c-0.205,1.032-0.827,1.729-1.852,1.925
		c-0.554,0.107-1.184,0.126-1.715-0.033c-1.585-0.474-3-1.24-4.071-2.586c-1.642-2.052-2.434-4.396-2.642-6.982
		c-0.543-6.826,1.501-12.812,6.349-17.578c17.625-17.319,61.876-11.696,66.527-11.166c4.832,0.548,9.552,1.666,14.268,2.784
		c5.64,1.338,11.257,2.765,16.9,4.088c5.442,1.275,10.958,2.167,16.476,3.043c4.378,0.696,8.776,1.172,13.207,1.361
		C425.473,273.424,425.84,273.41,426.331,273.41z M429.525,273.538c2.293,0.131,4.336-0.038,6.386-0.198
		c3.245-0.249,6.317-1.114,9.225-2.574c1.37-0.688,2.652-1.518,3.786-2.557c0.666-0.607,1.265-1.27,1.68-2.081
		c0.802-1.571,0.416-2.451-1.299-2.945c-1.448-0.411-2.917-0.438-4.386-0.176c-2.14,0.38-4.176,1.091-6.094,2.117
		c-3.544,1.897-6.451,4.537-8.905,7.695C429.792,272.973,429.723,273.165,429.525,273.538z"/>
</g>
</svg>
